<?xml version="1.0" encoding="UTF-8"?>
<svg xmlns="http://www.w3.org/2000/svg"
     width="520" height="480"
     viewBox="0 0 520 480">
  <rect width="100%" height="100%" fill="white"/>
  <path d="M412.0,158.0 L410.0,156.0 L408.0,154.0 L404.0,154.0 L400.0,154.0 L396.0,154.0 L392.0,154.0 L388.0,154.0 L384.0,154.0 L380.0,154.0 L376.0,154.0 L372.0,154.0 L368.0,154.0 L364.0,154.0 L360.0,154.0 L356.0,154.0 L352.0,154.0 L348.0,154.0 L344.0,154.0 L340.0,154.0 L336.0,154.0 L332.0,154.0 L328.0,154.0 L324.0,154.0 L320.0,154.0 L316.0,154.0 L312.0,154.0 L308.0,154.0 L304.0,154.0 L300.0,154.0 L296.0,154.0 L292.0,154.0 L288.0,154.0 L284.0,154.0 L280.0,154.0 L276.0,154.0 L272.0,154.0 L268.0,154.0 L264.0,154.0 L260.0,154.0 L256.0,154.0 L252.0,154.0 L248.0,154.0 L244.0,154.0 L240.0,154.0 L236.0,154.0 L232.0,154.0 L228.0,154.0 L224.0,154.0 L220.0,154.0 L218.0,156.0 L216.0,158.0 L212.0,158.0 L208.0,158.0 L204.0,158.0 L200.0,158.0 L196.0,158.0 L192.0,158.0 L190.0,156.0 L188.0,154.0 L184.0,154.0 L180.0,154.0 L176.0,154.0 L174.0,156.0 L172.0,158.0 L168.0,158.0 L164.0,158.0 L160.0,158.0 L156.0,158.0 L152.0,158.0 L150.0,156.0 L150.0,152.0 L152.0,150.0 L154.0,148.0 L156.0,146.0 L158.0,144.0 L160.0,142.0 L162.0,140.0 L164.0,138.0 L166.0,136.0 L168.0,134.0 L170.0,132.0 L172.0,130.0 L174.0,128.0 L176.0,126.0 L178.0,124.0 L180.0,122.0 L182.0,120.0 L184.0,118.0 L186.0,116.0 L188.0,114.0 L190.0,112.0 L192.0,110.0 L194.0,108.0 L196.0,106.0 L198.0,104.0 L200.0,102.0 L202.0,100.0 L204.0,98.0 L206.0,96.0 L208.0,94.0 L210.0,92.0 L212.0,90.0 L214.0,88.0 L216.0,86.0 L218.0,84.0 L220.0,82.0 L222.0,80.0 L224.0,78.0 L226.0,76.0 L228.0,74.0 L230.0,72.0 L232.0,70.0 L236.0,70.0 L240.0,70.0 L244.0,70.0 L248.0,70.0 L252.0,70.0 L256.0,70.0 L260.0,70.0 L264.0,70.0 L268.0,70.0 L272.0,70.0 L276.0,70.0 L280.0,70.0 L284.0,70.0 L288.0,70.0 L292.0,70.0 L296.0,70.0 L300.0,70.0 L304.0,70.0 L308.0,70.0 L312.0,70.0 L316.0,70.0 L320.0,70.0 L324.0,70.0 L328.0,70.0 L332.0,70.0 L336.0,70.0 L340.0,70.0 L344.0,70.0 L348.0,70.0 L352.0,70.0 L356.0,70.0 L360.0,70.0 L364.0,70.0 L368.0,70.0 L372.0,70.0 L376.0,70.0 L380.0,70.0 L384.0,70.0 L388.0,70.0 L392.0,70.0 L396.0,70.0 L400.0,70.0 L402.0,72.0 L404.0,74.0 L406.0,72.0 L408.0,70.0 L412.0,70.0 L416.0,70.0 L418.0,72.0 L420.0,74.0 L422.0,76.0 L422.0,80.0 L422.0,84.0 L422.0,88.0 L422.0,92.0 L422.0,96.0 L422.0,100.0 L422.0,104.0 L422.0,108.0 L422.0,112.0 L422.0,116.0 L422.0,120.0 L422.0,124.0 L422.0,128.0 L422.0,132.0 L422.0,136.0 L422.0,140.0 L422.0,144.0 L422.0,148.0 L422.0,152.0 L420.0,154.0 L416.0,154.0 L414.0,156.0 L412.0,158.0 Z" fill="black" fill-rule="evenodd"/><path d="M144.0,434.0 L140.0,434.0 L136.0,434.0 L132.0,434.0 L128.0,434.0 L124.0,434.0 L120.0,434.0 L116.0,434.0 L112.0,434.0 L108.0,434.0 L104.0,434.0 L100.0,434.0 L96.0,434.0 L92.0,434.0 L88.0,434.0 L84.0,434.0 L80.0,434.0 L76.0,434.0 L72.0,434.0 L68.0,434.0 L66.0,432.0 L66.0,428.0 L66.0,424.0 L66.0,420.0 L66.0,416.0 L66.0,412.0 L66.0,408.0 L66.0,404.0 L66.0,400.0 L66.0,396.0 L66.0,392.0 L66.0,388.0 L66.0,384.0 L66.0,380.0 L66.0,376.0 L66.0,372.0 L66.0,368.0 L66.0,364.0 L66.0,360.0 L66.0,356.0 L66.0,352.0 L66.0,348.0 L66.0,344.0 L66.0,340.0 L66.0,336.0 L66.0,332.0 L66.0,328.0 L66.0,324.0 L66.0,320.0 L66.0,316.0 L66.0,312.0 L66.0,308.0 L66.0,304.0 L66.0,300.0 L66.0,296.0 L66.0,292.0 L66.0,288.0 L66.0,284.0 L66.0,280.0 L66.0,276.0 L66.0,272.0 L66.0,268.0 L66.0,264.0 L66.0,260.0 L66.0,256.0 L66.0,252.0 L66.0,248.0 L66.0,244.0 L66.0,240.0 L66.0,236.0 L68.0,234.0 L70.0,232.0 L72.0,230.0 L74.0,228.0 L76.0,226.0 L78.0,224.0 L80.0,222.0 L82.0,220.0 L84.0,218.0 L86.0,216.0 L88.0,214.0 L90.0,212.0 L92.0,210.0 L94.0,208.0 L96.0,206.0 L98.0,204.0 L100.0,202.0 L102.0,200.0 L104.0,198.0 L106.0,196.0 L108.0,194.0 L110.0,192.0 L112.0,190.0 L114.0,188.0 L116.0,186.0 L118.0,184.0 L120.0,182.0 L122.0,180.0 L124.0,178.0 L126.0,176.0 L128.0,174.0 L130.0,172.0 L132.0,170.0 L134.0,168.0 L136.0,166.0 L138.0,164.0 L140.0,162.0 L142.0,160.0 L144.0,158.0 L146.0,160.0 L146.0,164.0 L146.0,168.0 L146.0,172.0 L146.0,176.0 L146.0,180.0 L146.0,184.0 L146.0,188.0 L146.0,192.0 L146.0,196.0 L146.0,200.0 L146.0,204.0 L146.0,208.0 L146.0,212.0 L146.0,216.0 L146.0,220.0 L146.0,224.0 L146.0,228.0 L146.0,232.0 L146.0,236.0 L146.0,240.0 L146.0,244.0 L146.0,248.0 L146.0,252.0 L146.0,256.0 L146.0,260.0 L146.0,264.0 L146.0,268.0 L146.0,272.0 L146.0,276.0 L146.0,280.0 L146.0,284.0 L146.0,288.0 L146.0,292.0 L146.0,296.0 L146.0,300.0 L146.0,304.0 L146.0,308.0 L146.0,312.0 L146.0,316.0 L146.0,320.0 L146.0,324.0 L146.0,328.0 L146.0,332.0 L146.0,336.0 L146.0,340.0 L146.0,344.0 L146.0,348.0 L146.0,352.0 L146.0,356.0 L146.0,360.0 L146.0,364.0 L146.0,368.0 L146.0,372.0 L146.0,376.0 L146.0,380.0 L146.0,384.0 L146.0,388.0 L146.0,392.0 L146.0,396.0 L146.0,400.0 L146.0,404.0 L146.0,408.0 L146.0,412.0 L146.0,416.0 L146.0,420.0 L146.0,424.0 L146.0,428.0 L146.0,432.0 L144.0,434.0 Z" fill="black" fill-rule="evenodd"/><path d="M236.0,434.0 L232.0,434.0 L228.0,434.0 L224.0,434.0 L220.0,434.0 L216.0,434.0 L212.0,434.0 L208.0,434.0 L204.0,434.0 L200.0,434.0 L196.0,434.0 L192.0,434.0 L188.0,434.0 L184.0,434.0 L180.0,434.0 L176.0,434.0 L172.0,434.0 L168.0,434.0 L164.0,434.0 L160.0,434.0 L158.0,432.0 L156.0,430.0 L154.0,428.0 L154.0,424.0 L154.0,420.0 L154.0,416.0 L154.0,412.0 L154.0,408.0 L154.0,404.0 L154.0,400.0 L154.0,396.0 L154.0,392.0 L154.0,388.0 L154.0,384.0 L154.0,380.0 L154.0,376.0 L154.0,372.0 L154.0,368.0 L154.0,364.0 L154.0,360.0 L154.0,356.0 L154.0,352.0 L154.0,348.0 L154.0,344.0 L154.0,340.0 L154.0,336.0 L154.0,332.0 L154.0,328.0 L154.0,324.0 L154.0,320.0 L154.0,316.0 L154.0,312.0 L154.0,308.0 L154.0,304.0 L154.0,300.0 L154.0,296.0 L154.0,292.0 L154.0,288.0 L154.0,284.0 L154.0,280.0 L154.0,276.0 L154.0,272.0 L154.0,268.0 L154.0,264.0 L154.0,260.0 L154.0,256.0 L154.0,252.0 L154.0,248.0 L154.0,244.0 L156.0,242.0 L158.0,240.0 L158.0,236.0 L158.0,232.0 L160.0,230.0 L162.0,228.0 L162.0,224.0 L162.0,220.0 L162.0,216.0 L164.0,214.0 L166.0,212.0 L168.0,210.0 L170.0,208.0 L170.0,204.0 L172.0,202.0 L174.0,200.0 L176.0,198.0 L178.0,196.0 L180.0,194.0 L182.0,192.0 L184.0,190.0 L186.0,188.0 L188.0,186.0 L190.0,184.0 L192.0,182.0 L194.0,180.0 L196.0,178.0 L198.0,176.0 L200.0,174.0 L204.0,174.0 L208.0,174.0 L210.0,172.0 L212.0,170.0 L216.0,170.0 L218.0,168.0 L220.0,166.0 L224.0,166.0 L228.0,166.0 L232.0,166.0 L236.0,166.0 L240.0,166.0 L244.0,166.0 L248.0,166.0 L252.0,166.0 L256.0,166.0 L260.0,166.0 L264.0,166.0 L268.0,166.0 L272.0,166.0 L276.0,166.0 L280.0,166.0 L284.0,166.0 L288.0,166.0 L292.0,166.0 L296.0,166.0 L300.0,166.0 L304.0,166.0 L308.0,166.0 L312.0,166.0 L316.0,166.0 L320.0,166.0 L324.0,166.0 L328.0,166.0 L332.0,166.0 L336.0,166.0 L340.0,166.0 L344.0,166.0 L348.0,166.0 L352.0,166.0 L356.0,166.0 L360.0,166.0 L364.0,166.0 L368.0,166.0 L372.0,166.0 L376.0,166.0 L380.0,166.0 L384.0,166.0 L388.0,166.0 L392.0,166.0 L396.0,166.0 L400.0,166.0 L404.0,166.0 L408.0,166.0 L412.0,166.0 L416.0,166.0 L420.0,166.0 L422.0,168.0 L422.0,172.0 L422.0,176.0 L422.0,180.0 L422.0,184.0 L422.0,188.0 L422.0,192.0 L422.0,196.0 L422.0,200.0 L422.0,204.0 L422.0,208.0 L422.0,212.0 L422.0,216.0 L422.0,220.0 L422.0,224.0 L422.0,228.0 L422.0,232.0 L422.0,236.0 L422.0,240.0 L422.0,244.0 L420.0,246.0 L416.0,246.0 L412.0,246.0 L408.0,246.0 L404.0,246.0 L400.0,246.0 L396.0,246.0 L392.0,246.0 L388.0,246.0 L384.0,246.0 L380.0,246.0 L376.0,246.0 L372.0,246.0 L368.0,246.0 L364.0,246.0 L360.0,246.0 L356.0,246.0 L352.0,246.0 L348.0,246.0 L344.0,246.0 L340.0,246.0 L336.0,246.0 L332.0,246.0 L328.0,246.0 L324.0,246.0 L320.0,246.0 L316.0,246.0 L312.0,246.0 L308.0,246.0 L304.0,246.0 L300.0,246.0 L296.0,246.0 L292.0,246.0 L288.0,246.0 L284.0,246.0 L280.0,246.0 L276.0,246.0 L274.0,248.0 L272.0,250.0 L270.0,252.0 L270.0,256.0 L268.0,258.0 L264.0,258.0 L260.0,258.0 L258.0,260.0 L258.0,264.0 L256.0,266.0 L252.0,266.0 L250.0,268.0 L250.0,272.0 L248.0,274.0 L246.0,276.0 L244.0,278.0 L242.0,280.0 L242.0,284.0 L242.0,288.0 L242.0,292.0 L240.0,294.0 L238.0,296.0 L238.0,300.0 L238.0,304.0 L238.0,308.0 L238.0,312.0 L238.0,316.0 L238.0,320.0 L238.0,324.0 L238.0,328.0 L238.0,332.0 L238.0,336.0 L238.0,340.0 L238.0,344.0 L238.0,348.0 L238.0,352.0 L238.0,356.0 L238.0,360.0 L238.0,364.0 L238.0,368.0 L238.0,372.0 L238.0,376.0 L238.0,380.0 L238.0,384.0 L238.0,388.0 L238.0,392.0 L238.0,396.0 L238.0,400.0 L238.0,404.0 L238.0,408.0 L238.0,412.0 L238.0,416.0 L238.0,420.0 L238.0,424.0 L240.0,426.0 L242.0,428.0 L240.0,430.0 L238.0,432.0 L236.0,434.0 Z" fill="black" fill-rule="evenodd"/><path d="M324.0,346.0 L320.0,346.0 L316.0,346.0 L312.0,346.0 L308.0,346.0 L304.0,346.0 L300.0,346.0 L296.0,346.0 L292.0,346.0 L288.0,346.0 L284.0,346.0 L280.0,346.0 L276.0,346.0 L272.0,346.0 L268.0,346.0 L264.0,346.0 L260.0,346.0 L256.0,346.0 L254.0,344.0 L252.0,342.0 L250.0,340.0 L250.0,336.0 L250.0,332.0 L250.0,328.0 L250.0,324.0 L250.0,320.0 L250.0,316.0 L250.0,312.0 L250.0,308.0 L250.0,304.0 L250.0,300.0 L250.0,296.0 L250.0,292.0 L250.0,288.0 L252.0,286.0 L254.0,284.0 L256.0,282.0 L258.0,280.0 L258.0,276.0 L260.0,274.0 L264.0,274.0 L266.0,272.0 L266.0,268.0 L268.0,266.0 L272.0,266.0 L276.0,266.0 L278.0,264.0 L280.0,262.0 L284.0,262.0 L288.0,262.0 L292.0,262.0 L296.0,262.0 L300.0,262.0 L304.0,262.0 L308.0,262.0 L312.0,262.0 L316.0,262.0 L318.0,260.0 L320.0,258.0 L324.0,258.0 L326.0,260.0 L328.0,262.0 L330.0,264.0 L330.0,268.0 L330.0,272.0 L330.0,276.0 L330.0,280.0 L330.0,284.0 L330.0,288.0 L330.0,292.0 L330.0,296.0 L330.0,300.0 L330.0,304.0 L330.0,308.0 L330.0,312.0 L330.0,316.0 L330.0,320.0 L330.0,324.0 L330.0,328.0 L330.0,332.0 L330.0,336.0 L330.0,340.0 L328.0,342.0 L326.0,344.0 L324.0,346.0 Z" fill="black" fill-rule="evenodd"/>
</svg>
